<svg id="visual" viewBox="0 0 900 600" width="900" height="600" xmlns="http://www.w3.org/2000/svg" xmlns:xlink="http://www.w3.org/1999/xlink" version="1.1"><rect x="0" y="0" width="900" height="600" fill="#FFFFFF"></rect><g fill="none" stroke="#F9CADA" stroke-width="2"><circle r="18" cx="326" cy="123"></circle><circle r="2" cx="360" cy="372"></circle><circle r="8" cx="141" cy="126"></circle><circle r="16" cx="471" cy="454"></circle><circle r="1" cx="891" cy="109"></circle><circle r="11" cx="237" cy="170"></circle><circle r="2" cx="105" cy="174"></circle><circle r="13" cx="499" cy="24"></circle><circle r="2" cx="444" cy="112"></circle><circle r="1" cx="143" cy="165"></circle><circle r="11" cx="850" cy="14"></circle><circle r="9" cx="146" cy="219"></circle><circle r="1" cx="192" cy="493"></circle><circle r="15" cx="4" cy="352"></circle><circle r="6" cx="536" cy="203"></circle><circle r="7" cx="772" cy="419"></circle><circle r="14" cx="784" cy="297"></circle><circle r="13" cx="496" cy="251"></circle><circle r="12" cx="293" cy="563"></circle><circle r="9" cx="64" cy="384"></circle><circle r="9" cx="698" cy="429"></circle><circle r="15" cx="643" cy="521"></circle><circle r="7" cx="362" cy="246"></circle><circle r="4" cx="434" cy="290"></circle><circle r="9" cx="885" cy="555"></circle><circle r="8" cx="609" cy="406"></circle><circle r="9" cx="440" cy="156"></circle><circle r="3" cx="293" cy="47"></circle><circle r="9" cx="602" cy="348"></circle><circle r="13" cx="315" cy="411"></circle><circle r="8" cx="155" cy="351"></circle><circle r="15" cx="695" cy="490"></circle><circle r="4" cx="507" cy="598"></circle><circle r="8" cx="615" cy="188"></circle><circle r="16" cx="482" cy="343"></circle><circle r="7" cx="369" cy="57"></circle><circle r="4" cx="120" cy="58"></circle><circle r="6" cx="864" cy="168"></circle><circle r="9" cx="249" cy="105"></circle><circle r="12" cx="409" cy="561"></circle><circle r="5" cx="328" cy="507"></circle><circle r="16" cx="640" cy="61"></circle><circle r="1" cx="795" cy="357"></circle><circle r="16" cx="329" cy="341"></circle><circle r="14" cx="704" cy="145"></circle><circle r="14" cx="787" cy="212"></circle><circle r="8" cx="451" cy="383"></circle><circle r="4" cx="805" cy="28"></circle><circle r="9" cx="753" cy="62"></circle><circle r="16" cx="747" cy="590"></circle><circle r="12" cx="105" cy="420"></circle><circle r="1" cx="90" cy="287"></circle><circle r="12" cx="880" cy="371"></circle><circle r="12" cx="698" cy="243"></circle><circle r="4" cx="659" cy="221"></circle><circle r="13" cx="201" cy="186"></circle><circle r="14" cx="665" cy="120"></circle><circle r="15" cx="779" cy="503"></circle><circle r="14" cx="567" cy="555"></circle><circle r="15" cx="171" cy="258"></circle><circle r="15" cx="625" cy="276"></circle><circle r="5" cx="576" cy="278"></circle><circle r="11" cx="248" cy="474"></circle><circle r="16" cx="719" cy="544"></circle><circle r="4" cx="208" cy="580"></circle><circle r="9" cx="173" cy="14"></circle><circle r="15" cx="695" cy="18"></circle><circle r="15" cx="737" cy="306"></circle><circle r="8" cx="694" cy="337"></circle><circle r="5" cx="343" cy="584"></circle><circle r="1" cx="443" cy="204"></circle><circle r="16" cx="141" cy="531"></circle><circle r="4" cx="700" cy="283"></circle><circle r="1" cx="46" cy="501"></circle><circle r="15" cx="855" cy="315"></circle><circle r="2" cx="559" cy="127"></circle><circle r="14" cx="256" cy="248"></circle><circle r="1" cx="254" cy="318"></circle><circle r="16" cx="376" cy="5"></circle><circle r="2" cx="90" cy="23"></circle><circle r="13" cx="811" cy="152"></circle><circle r="8" cx="769" cy="7"></circle><circle r="2" cx="819" cy="445"></circle><circle r="2" cx="200" cy="539"></circle><circle r="6" cx="615" cy="12"></circle><circle r="10" cx="399" cy="347"></circle><circle r="1" cx="270" cy="9"></circle><circle r="7" cx="243" cy="57"></circle><circle r="16" cx="519" cy="299"></circle><circle r="2" cx="166" cy="595"></circle><circle r="5" cx="614" cy="91"></circle><circle r="5" cx="477" cy="299"></circle><circle r="6" cx="363" cy="424"></circle><circle r="11" cx="811" cy="565"></circle><circle r="7" cx="11" cy="282"></circle><circle r="13" cx="754" cy="117"></circle><circle r="5" cx="191" cy="79"></circle><circle r="7" cx="664" cy="264"></circle><circle r="2" cx="236" cy="379"></circle><circle r="6" cx="698" cy="75"></circle><circle r="5" cx="73" cy="136"></circle><circle r="9" cx="746" cy="471"></circle><circle r="4" cx="274" cy="525"></circle><circle r="8" cx="157" cy="467"></circle><circle r="4" cx="299" cy="293"></circle><circle r="5" cx="497" cy="538"></circle><circle r="16" cx="372" cy="181"></circle><circle r="12" cx="557" cy="398"></circle><circle r="9" cx="734" cy="184"></circle><circle r="9" cx="654" cy="422"></circle><circle r="16" cx="631" cy="566"></circle><circle r="6" cx="870" cy="250"></circle><circle r="3" cx="610" cy="232"></circle><circle r="7" cx="747" cy="370"></circle><circle r="16" cx="307" cy="469"></circle><circle r="1" cx="545" cy="12"></circle><circle r="7" cx="53" cy="452"></circle><circle r="10" cx="439" cy="46"></circle><circle r="15" cx="811" cy="260"></circle><circle r="5" cx="859" cy="500"></circle><circle r="14" cx="521" cy="97"></circle><circle r="4" cx="314" cy="246"></circle><circle r="10" cx="290" cy="103"></circle><circle r="6" cx="328" cy="189"></circle><circle r="13" cx="514" cy="424"></circle><circle r="10" cx="45" cy="97"></circle><circle r="8" cx="121" cy="489"></circle><circle r="4" cx="483" cy="209"></circle><circle r="16" cx="548" cy="359"></circle><circle r="11" cx="277" cy="378"></circle><circle r="16" cx="69" cy="251"></circle><circle r="3" cx="53" cy="47"></circle><circle r="6" cx="517" cy="150"></circle><circle r="10" cx="193" cy="427"></circle><circle r="16" cx="398" cy="144"></circle><circle r="7" cx="518" cy="385"></circle><circle r="3" cx="457" cy="244"></circle><circle r="12" cx="435" cy="429"></circle><circle r="2" cx="866" cy="459"></circle><circle r="5" cx="31" cy="163"></circle><circle r="7" cx="898" cy="315"></circle><circle r="2" cx="5" cy="507"></circle><circle r="9" cx="342" cy="282"></circle><circle r="5" cx="94" cy="328"></circle><circle r="7" cx="798" cy="110"></circle><circle r="10" cx="557" cy="503"></circle><circle r="12" cx="252" cy="434"></circle><circle r="3" cx="549" cy="461"></circle><circle r="4" cx="197" cy="357"></circle><circle r="8" cx="490" cy="65"></circle><circle r="10" cx="82" cy="541"></circle><circle r="13" cx="256" cy="595"></circle><circle r="2" cx="121" cy="375"></circle><circle r="8" cx="119" cy="257"></circle><circle r="15" cx="859" cy="598"></circle><circle r="5" cx="88" cy="90"></circle><circle r="15" cx="471" cy="503"></circle><circle r="3" cx="145" cy="410"></circle><circle r="2" cx="606" cy="449"></circle><circle r="5" cx="682" cy="567"></circle><circle r="7" cx="33" cy="318"></circle><circle r="3" cx="427" cy="501"></circle><circle r="1" cx="293" cy="153"></circle><circle r="5" cx="201" cy="146"></circle><circle r="5" cx="588" cy="57"></circle><circle r="9" cx="596" cy="527"></circle><circle r="16" cx="576" cy="204"></circle><circle r="8" cx="409" cy="240"></circle><circle r="7" cx="362" cy="317"></circle><circle r="15" cx="571" cy="594"></circle><circle r="8" cx="281" cy="191"></circle><circle r="4" cx="848" cy="117"></circle><circle r="6" cx="4" cy="23"></circle><circle r="2" cx="640" cy="368"></circle><circle r="16" cx="373" cy="537"></circle><circle r="15" cx="3" cy="452"></circle><circle r="2" cx="661" cy="471"></circle><circle r="16" cx="179" cy="315"></circle><circle r="12" cx="13" cy="570"></circle><circle r="13" cx="89" cy="580"></circle><circle r="11" cx="50" cy="598"></circle><circle r="12" cx="18" cy="221"></circle><circle r="15" cx="839" cy="365"></circle><circle r="14" cx="332" cy="38"></circle><circle r="10" cx="354" cy="475"></circle><circle r="4" cx="2" cy="74"></circle><circle r="12" cx="362" cy="104"></circle><circle r="3" cx="539" cy="53"></circle><circle r="3" cx="217" cy="264"></circle><circle r="13" cx="880" cy="42"></circle><circle r="9" cx="841" cy="405"></circle><circle r="13" cx="656" cy="4"></circle><circle r="12" cx="607" cy="138"></circle><circle r="4" cx="25" cy="399"></circle><circle r="3" cx="60" cy="201"></circle><circle r="7" cx="236" cy="517"></circle><circle r="1" cx="51" cy="3"></circle><circle r="4" cx="401" cy="451"></circle><circle r="6" cx="679" cy="187"></circle><circle r="2" cx="408" cy="397"></circle><circle r="3" cx="101" cy="218"></circle><circle r="12" cx="321" cy="78"></circle><circle r="12" cx="430" cy="597"></circle><circle r="1" cx="481" cy="164"></circle><circle r="15" cx="567" cy="325"></circle><circle r="7" cx="837" cy="204"></circle><circle r="15" cx="814" cy="67"></circle><circle r="15" cx="504" cy="481"></circle><circle r="12" cx="898" cy="218"></circle><circle r="6" cx="547" cy="244"></circle><circle r="2" cx="749" cy="263"></circle><circle r="6" cx="641" cy="319"></circle><circle r="14" cx="452" cy="545"></circle><circle r="15" cx="716" cy="395"></circle><circle r="5" cx="140" cy="292"></circle><circle r="2" cx="881" cy="413"></circle><circle r="8" cx="431" cy="1"></circle><circle r="15" cx="3" cy="116"></circle><circle r="4" cx="821" cy="522"></circle><circle r="8" cx="760" cy="544"></circle><circle r="14" cx="624" cy="486"></circle><circle r="3" cx="646" cy="155"></circle><circle r="15" cx="135" cy="2"></circle><circle r="16" cx="473" cy="579"></circle><circle r="4" cx="899" cy="483"></circle><circle r="6" cx="126" cy="598"></circle><circle r="8" cx="486" cy="115"></circle><circle r="10" cx="442" cy="344"></circle><circle r="2" cx="228" cy="216"></circle><circle r="12" cx="403" cy="89"></circle><circle r="9" cx="227" cy="19"></circle><circle r="4" cx="770" cy="160"></circle><circle r="2" cx="243" cy="557"></circle><circle r="9" cx="866" cy="79"></circle><circle r="6" cx="681" cy="374"></circle><circle r="6" cx="394" cy="278"></circle><circle r="4" cx="288" cy="338"></circle><circle r="10" cx="312" cy="5"></circle><circle r="2" cx="786" cy="597"></circle><circle r="1" cx="559" cy="169"></circle><circle r="16" cx="528" cy="565"></circle><circle r="8" cx="81" cy="482"></circle></g></svg>