<?xml version="1.0" encoding="UTF-8"?>
<!DOCTYPE svg PUBLIC "-//W3C//DTD SVG 1.1//EN" "http://www.w3.org/Graphics/SVG/1.1/DTD/svg11.dtd">
<!-- Creator: CorelDRAW X5 -->
<svg xmlns="http://www.w3.org/2000/svg" xml:space="preserve" width="445.594mm" height="91.44mm" style="shape-rendering:geometricPrecision; text-rendering:geometricPrecision; image-rendering:optimizeQuality; fill-rule:evenodd; clip-rule:evenodd"
viewBox="0 0 44559 9144"
 xmlns:xlink="http://www.w3.org/1999/xlink">
 <defs>
  <style type="text/css">
   <![CDATA[
    .str0 {stroke:#332C2B;stroke-width:7.62}
    .fil0 {fill:none}
    .fil2 {fill:#0632AD}
    .fil1 {fill:red}
   ]]>
  </style>
 </defs>
<symbol id="format_x0020_logo_x0020_utk_x0020_jpg" viewBox="12944 -5176 18672 19496">
 <rect class="fil0 str0" x="12947" y="-5172" width="18665" height="19488"/>
</symbol>
 <g id="Layer_x0020_1">
  <metadata id="CorelCorpID_0Corel-Layer"/>
  <path class="fil1" d="M2756 7658c716,683 1680,1098 2731,1098 1051,0 2015,-415 2738,-1098l529 0c-810,917 -1975,1486 -3267,1486 -1292,0 -2457,-569 -3267,-1486l536 0zm743 0c134,94 281,181 428,254 100,-94 214,-181 328,-254l448 0c-20,7 -40,20 -54,27 -74,33 -141,74 -207,114 -100,60 -194,134 -288,214 408,174 864,268 1332,268 469,0 924,-94 1332,-268 -94,-80 -187,-154 -288,-214 -67,-40 -134,-80 -208,-114 -13,-7 -33,-20 -54,-27l449 0c0,0 0,0 0,0 114,74 228,161 328,254 147,-80 295,-161 428,-254l362 0c-194,154 -402,295 -623,408 -74,40 -147,80 -221,114 -462,201 -971,315 -1506,315 -536,0 -1044,-114 -1506,-315 -74,-33 -147,-74 -221,-114 -221,-114 -428,-254 -623,-408l361 0z"/>
  <path class="fil1" d="M1745 6172c228,569 576,1078 1011,1486l-536 0c-382,-428 -683,-930 -884,-1486l408 0zm502 0c181,395 428,750 730,1051 161,-181 341,-348 529,-489 -94,-174 -174,-361 -248,-562l214 0c60,154 127,308 201,442 74,-40 141,-87 214,-127l-281 -315 469 0 107 167c54,-20 107,-40 167,-67 -13,-33 -20,-67 -27,-100l174 0c7,13 7,33 13,47 54,-13 114,-33 167,-47l1620 0c54,13 114,33 167,47 7,-13 7,-33 13,-47l174 0c-7,33 -13,67 -27,100 241,94 462,208 676,341 74,-134 141,-288 201,-442l214 0c-74,201 -154,388 -248,562 187,141 368,308 529,489 301,-301 549,-656 730,-1051l234 0c-201,455 -482,870 -823,1218 -47,47 -100,94 -154,141 -47,40 -94,87 -147,127l-362 0c127,-87 254,-187 368,-288 -147,-167 -315,-315 -489,-442 -181,288 -395,536 -636,730l-449 0c-67,-27 -134,-54 -201,-80 -60,-13 -114,-33 -174,-47 -127,-27 -268,-40 -408,-40 -141,0 -281,13 -408,40 -60,13 -114,33 -174,47 -67,27 -134,54 -201,80l-448 0c-241,-194 -455,-442 -636,-730 -174,127 -341,274 -489,442 114,100 241,201 368,288l-361 0c-54,-40 -100,-87 -147,-127 -54,-47 -107,-94 -154,-141 -341,-348 -623,-763 -823,-1218l234 0zm7390 0c-201,556 -502,1058 -884,1486l-529 0c428,-408 776,-917 1004,-1486l408 0zm-5851 643c187,301 408,549 656,736 107,-60 221,-107 335,-147 -147,-234 -274,-542 -375,-897 -33,13 -67,20 -100,40l47 67 -207 0c-121,60 -241,127 -355,201zm2745 736c248,-187 469,-435 656,-736 -194,-127 -402,-228 -616,-308 -100,355 -228,663 -375,897 114,40 228,87 335,147zm-1968 -1098c100,368 228,676 375,904 174,-47 362,-74 549,-74 187,0 375,27 549,74 147,-228 274,-536 375,-904 -295,-94 -602,-141 -924,-141 -321,0 -629,47 -924,141z"/>
  <path class="fil1" d="M3485 3943l-141 221 823 40c7,-87 13,-174 20,-261l174 0c-7,87 -7,174 -13,268l1145 54 315 -321 388 0 -375 569 348 569 -335 0 -368 -335 -1125 47c13,502 67,971 154,1379l-174 0c-87,-415 -141,-877 -154,-1372l-910 40 817 1332 -469 0 -147 -161 -40 0c20,54 33,107 54,161l-214 0c-20,-54 -34,-107 -54,-161l-54 0 -187 -248 167 -13c-7,-47 -20,-87 -27,-134l-67 -67 -295 0 -214 -274 248 -20 -355 -388c-181,0 -348,7 -509,7l-214 13 -248 7 -382 27c-274,13 -522,27 -763,33 -114,0 -388,20 -281,-208 87,-181 295,-428 489,-522 214,-100 361,-167 576,-174 469,-13 1439,100 1439,100l187 -207 770 0zm3300 0c13,114 20,234 20,355l-181 0c0,-120 -7,-241 -13,-355l174 0zm1158 0c13,114 27,234 33,355l-207 0c-7,-120 -20,-241 -33,-355l207 0zm1299 0c13,114 27,234 40,355l-214 0c-13,-120 -27,-241 -47,-355l221 0zm629 0c13,114 27,234 33,355l-375 0c-7,-120 -20,-241 -40,-355l382 0zm-8535 2229c-100,-288 -181,-582 -228,-897l382 0c54,315 141,616 254,897l-408 0zm676 0c-120,-281 -214,-582 -268,-897l214 0c60,315 161,616 288,897l-234 0zm2664 0c261,-67 529,-100 810,-100 281,0 549,33 810,100l-1620 0zm1801 0c80,-395 134,-843 147,-1319l181 0c-13,475 -67,917 -154,1319l-174 0zm1024 0c147,-395 241,-843 268,-1319l207 0c-27,469 -121,917 -261,1319l-214 0zm1225 0c187,-402 308,-850 341,-1319l214 0c-33,469 -147,910 -321,1319l-234 0zm502 0c167,-408 268,-857 301,-1319l375 0c-27,462 -120,904 -268,1319l-408 0zm-2443 -1700l4492 0 0 207 -4492 0 0 -207z"/>
  <path class="fil1" d="M2715 3943l134 -154 -254 -20 214 -274 301 0c13,-67 34,-134 47,-201l-120 -7 187 -248 13 0c74,-228 167,-435 268,-623 -187,-147 -368,-308 -529,-489 -475,475 -823,1091 -977,1781l-221 0c382,-1754 1894,-3059 3708,-3059 1888,0 3461,1426 3755,3293l-221 0c-127,-783 -495,-1486 -1024,-2015 -161,181 -341,341 -529,489 234,435 402,957 475,1526l-207 0c-67,-529 -221,-1004 -435,-1412 -214,141 -435,254 -676,341 80,328 134,683 161,1071l-174 0c-27,-368 -80,-710 -147,-1018 -308,100 -636,154 -977,154 -341,0 -669,-54 -977,-154 -67,308 -120,649 -147,1018l-174 0c27,-388 80,-743 161,-1071 -54,-20 -107,-40 -154,-60l-710 1131 -770 0zm3093 0l13 -20 382 0 -7 20 -388 0zm3682 0c-295,-2008 -1975,-3548 -4003,-3548 -1948,0 -3575,1419 -3963,3314l-382 0c388,-2115 2189,-3708 4344,-3708 2236,0 4083,1714 4385,3943l-382 0zm-5871 -1727c181,-288 395,-536 636,-723 -114,-80 -228,-161 -328,-254 -288,141 -556,328 -797,542 147,161 315,308 489,435zm823 -864c67,40 134,80 207,114 80,40 167,74 261,100 54,20 107,33 167,47 134,27 268,47 408,47 141,0 274,-20 408,-47 60,-13 114,-27 167,-47 94,-27 181,-60 261,-100 74,-33 141,-74 208,-114 100,-67 194,-141 288,-221 -408,-167 -864,-261 -1332,-261 -469,0 -924,94 -1332,261 94,80 187,154 288,221zm0 248c-248,187 -469,435 -656,736 87,54 167,100 261,147l40 -47 341 0 -107 174 80 33c100,-361 234,-663 382,-897 -120,-40 -234,-87 -341,-147zm-770 930c-80,161 -154,328 -221,509l87 0 348 -382c-74,-40 -141,-80 -214,-127zm3514 -194c-187,-301 -408,-549 -656,-736 -107,60 -221,107 -341,147 147,234 281,536 382,897 214,-80 422,-187 616,-308zm-469 -843c241,187 455,435 636,723 174,-127 341,-274 489,-435 -241,-214 -509,-402 -797,-542 -100,94 -214,174 -328,254zm-1781 301c-147,221 -274,529 -375,904 295,94 602,141 924,141 321,0 629,-47 924,-141 -100,-375 -228,-683 -375,-904 -174,47 -361,67 -549,67 -187,0 -375,-20 -549,-67z"/>
  <path class="fil2" d="M37236 8294l917 -5589 1038 0c-629,-181 -1058,-536 -1058,-951 0,-589 877,-1071 1968,-1071 1084,0 1961,482 1961,1071 0,415 -428,770 -1058,951l823 0 -924 5589 -3668 0zm-11179 0l1325 -7611 3675 0 -1332 7611 -3668 0zm-4719 0l917 -5589 1044 0c-629,-181 -1064,-536 -1064,-951 0,-589 884,-1071 1968,-1071 1084,0 1968,482 1968,1071 0,415 -435,770 -1064,951l823 0 -924 5589 -3668 0zm-6922 0l984 -5523 -2356 0 375 -2149 8220 0 -395 2149 -2169 0 -991 5523 -3668 0z"/>
  <path class="fil1" d="M43421 1225l0 315 127 0c80,0 141,-7 174,-33 33,-27 54,-67 54,-121 0,-54 -20,-94 -60,-120 -33,-27 -94,-40 -181,-40l-114 0zm-268 -174l428 0c154,0 274,27 355,80 80,54 114,134 114,241 0,74 -20,134 -60,187 -47,47 -100,87 -181,100l248 495 -295 0 -214 -448 -127 0 0 448 -268 0 0 -1105zm408 -254c-114,0 -214,20 -315,60 -94,40 -181,94 -261,174 -80,80 -141,174 -187,274 -40,100 -67,208 -67,315 0,114 27,214 67,315 40,100 100,187 174,268 80,80 167,141 274,181 100,47 207,67 315,67 107,0 207,-20 308,-60 107,-47 194,-100 281,-181 74,-74 134,-161 174,-261 47,-100 67,-201 67,-308 0,-120 -20,-228 -60,-328 -40,-100 -100,-187 -174,-268 -80,-80 -174,-147 -274,-187 -100,-40 -207,-60 -321,-60zm0 -167c134,0 268,27 388,74 121,54 228,127 321,228 94,87 167,194 214,315 47,121 74,248 74,382 0,134 -27,261 -80,382 -47,121 -120,228 -214,321 -94,94 -207,161 -328,214 -121,47 -248,74 -375,74 -134,0 -261,-27 -382,-80 -120,-47 -228,-120 -328,-221 -87,-94 -161,-201 -207,-315 -47,-121 -74,-248 -74,-375 0,-94 13,-181 33,-268 27,-87 60,-167 114,-248 87,-154 208,-274 355,-355 147,-87 308,-127 489,-127z"/>
  <polygon class="fil1" points="33380,790 37638,790 34016,4478 36373,8294 31948,8294 29705,4619 "/>
 </g>
</svg>
